<?xml version="1.0" encoding="utf-8"?>
<!-- Generator: Adobe Illustrator 16.0.0, SVG Export Plug-In . SVG Version: 6.00 Build 0)  -->
<!DOCTYPE svg PUBLIC "-//W3C//DTD SVG 1.1//EN" "http://www.w3.org/Graphics/SVG/1.1/DTD/svg11.dtd">
<svg version="1.1" id="Layer_1" xmlns="http://www.w3.org/2000/svg" xmlns:xlink="http://www.w3.org/1999/xlink" x="0px" y="0px"
	 width="284.179px" height="475.484px" viewBox="0 0 284.179 475.484" enable-background="new 0 0 284.179 475.484"
	 xml:space="preserve">
<path fill="#FFFFFF" d="M23.938,91.717l12.007,39.069c36.063-6.145,72.742-9.292,109.707-9.292c34.515,0,68.786,2.731,102.535,8.094
	l12.013-39.086c-37.667-6.307-75.962-9.535-114.548-9.535C104.621,80.967,63.908,84.593,23.938,91.717z M47.927,169.774
	l12.035,39.155c21.233-3.216,42.696-5.251,64.3-6.062v272.616h35.241v-17.621h31.679V429.67h-31.679v-15.856h46.253v-28.192h-46.253
	V202.652c21.7,0.527,43.272,2.27,64.625,5.224l12.049-39.203c-29.829-4.455-60.074-6.737-90.524-6.737
	C112.751,161.937,80.084,164.58,47.927,169.774z M145.653,0C96.493,0,47.752,4.68,0,13.824l11.979,38.985
	c43.861-8.124,88.582-12.282,133.673-12.282c42.646,0,84.961,3.715,126.529,10.988l11.997-39.029C238.707,4.221,192.368,0,145.653,0
	z"/>
<g>
</g>
<g>
</g>
<g>
</g>
<g>
</g>
<g>
</g>
<g>
</g>
<g>
</g>
<g>
</g>
<g>
</g>
<g>
</g>
<g>
</g>
</svg>
